<svg width="325" height="30" viewBox="0 0 325 30" fill="none" xmlns="http://www.w3.org/2000/svg">
<path d="M14.6 18.616C15.096 17.592 15.56 16.824 15.992 16.312H2V15.304H15.992C15.56 14.792 15.096 14.024 14.6 13H15.44C16.448 14.168 17.504 15.032 18.608 15.592V16.024C17.504 16.584 16.448 17.448 15.44 18.616H14.6Z" fill="#242424"/>
<path d="M84.6292 9.39392H74.132C74.0585 9.38671 73.9845 9.40072 73.9173 9.43459C73.85 9.46846 73.7917 9.52106 73.7481 9.5873C73.7044 9.65355 73.6768 9.7312 73.668 9.81276C73.6592 9.89432 73.6694 9.97704 73.6977 10.0529L75.3581 15.4658C75.4065 15.6152 75.4937 15.7452 75.6088 15.8392C75.7238 15.9332 75.8613 15.987 76.0039 15.9936H82.8856C83.0282 15.987 83.1659 15.9332 83.281 15.8392C83.3961 15.7452 83.4835 15.6152 83.5319 15.4657L84.9781 9.92316C85.0007 9.8622 85.0088 9.79578 85.0017 9.73031C84.9945 9.66484 84.9724 9.60252 84.9373 9.54934C84.9023 9.49616 84.8555 9.45391 84.8016 9.42666C84.7476 9.39942 84.6882 9.38809 84.6292 9.39377V9.39392Z" fill="black"/>
<path d="M76.6517 22.2298C76.6517 22.5754 76.5596 22.9132 76.3871 23.2005C76.2146 23.4878 75.9694 23.7118 75.6825 23.844C75.3956 23.9762 75.08 24.0108 74.7754 23.9434C74.4709 23.876 74.1911 23.7096 73.9716 23.4653C73.752 23.2209 73.6025 22.9096 73.5419 22.5707C73.4813 22.2317 73.5124 21.8804 73.6312 21.5612C73.7501 21.2419 73.9513 20.969 74.2095 20.777C74.4676 20.5851 74.7712 20.4826 75.0817 20.4826C75.2879 20.4826 75.492 20.5278 75.6825 20.6156C75.873 20.7034 76.0461 20.8321 76.1919 20.9943C76.3376 21.1566 76.4533 21.3492 76.5322 21.5612C76.6111 21.7731 76.6517 22.0003 76.6517 22.2298Z" fill="black"/>
<path d="M83.2955 22.2511C83.2955 22.5967 83.2034 22.9345 83.0309 23.2218C82.8584 23.5092 82.6132 23.7331 82.3263 23.8654C82.0394 23.9976 81.7238 24.0322 81.4192 23.9648C81.1147 23.8974 80.8349 23.731 80.6154 23.4866C80.3958 23.2423 80.2463 22.9309 80.1857 22.592C80.1251 22.2531 80.1562 21.9018 80.275 21.5825C80.3939 21.2633 80.5951 20.9904 80.8533 20.7984C81.1115 20.6064 81.415 20.5039 81.7255 20.5039C82.1418 20.5042 82.541 20.6883 82.8354 21.0159C83.1298 21.3436 83.2953 21.7878 83.2955 22.2511Z" fill="black"/>
<path d="M83.6117 17.7713H74.4271L70.7512 6H67.8891C67.6533 6 67.4272 6.10425 67.2604 6.28982C67.0937 6.47538 67 6.72706 67 6.98949C67 7.25192 67.0937 7.5036 67.2604 7.68916C67.4272 7.87473 67.6533 7.97898 67.8891 7.97898H69.4869L73.1628 19.7502H83.6117C83.7285 19.7502 83.8441 19.7247 83.952 19.6749C84.0598 19.6252 84.1578 19.5523 84.2404 19.4604C84.323 19.3686 84.3885 19.2595 84.4331 19.1394C84.4778 19.0194 84.5008 18.8907 84.5008 18.7608C84.5008 18.6308 84.4778 18.5021 84.4331 18.3821C84.3885 18.262 84.323 18.153 84.2404 18.0611C84.1578 17.9692 84.0598 17.8963 83.952 17.8466C83.8441 17.7969 83.7285 17.7713 83.6117 17.7713Z" fill="black"/>
<path d="M165 3.44727V26.7969C165 27.5996 164.257 28.2441 163.346 28.2441H155.699V18.084H159.596L160.179 14.123H155.692V11.5918C155.692 10.4434 156.054 9.66406 157.935 9.66406H160.333V6.11914C159.917 6.07227 158.498 5.96094 156.837 5.96094C153.382 5.96094 151.011 7.80664 151.011 11.1992V14.123H147.1V18.084H151.011V28.25H136.654C135.743 28.25 135 27.5996 135 26.8027V3.44727C135 2.65039 135.743 2 136.654 2H163.339C164.257 2 165 2.65039 165 3.44727Z" fill="black"/>
<path d="M230.012 8.39698C225.753 8.39698 222.318 11.4029 222.318 15.1294C222.318 18.856 225.753 21.8619 230.012 21.8619C234.271 21.8619 237.706 18.856 237.706 15.1294C237.706 11.4029 234.271 8.39698 230.012 8.39698ZM230.012 19.5064C227.26 19.5064 225.01 17.5435 225.01 15.1294C225.01 12.7154 227.253 10.7525 230.012 10.7525C232.771 10.7525 235.014 12.7154 235.014 15.1294C235.014 17.5435 232.764 19.5064 230.012 19.5064ZM239.815 8.12159C239.815 8.99463 239.012 9.6919 238.021 9.6919C237.023 9.6919 236.226 8.98877 236.226 8.12159C236.226 7.2544 237.03 6.55127 238.021 6.55127C239.012 6.55127 239.815 7.2544 239.815 8.12159ZM244.911 9.71533C244.797 7.61182 244.248 5.74854 242.487 4.21338C240.733 2.67823 238.603 2.19776 236.199 2.09229C233.722 1.96924 226.295 1.96924 223.818 2.09229C221.42 2.1919 219.291 2.67237 217.53 4.20752C215.768 5.74268 215.226 7.60596 215.105 9.70947C214.965 11.8775 214.965 18.3755 215.105 20.5435C215.219 22.647 215.768 24.5103 217.53 26.0454C219.291 27.5806 221.414 28.0611 223.818 28.1665C226.295 28.2896 233.722 28.2896 236.199 28.1665C238.603 28.0669 240.733 27.5865 242.487 26.0454C244.242 24.5103 244.791 22.647 244.911 20.5435C245.052 18.3755 245.052 11.8833 244.911 9.71533ZM241.71 22.8697C241.188 24.0181 240.177 24.9029 238.858 25.3658C236.882 26.0513 232.195 25.8931 230.012 25.8931C227.829 25.8931 223.134 26.0454 221.166 25.3658C219.853 24.9087 218.842 24.024 218.313 22.8697C217.53 21.1411 217.71 17.0396 217.71 15.1294C217.71 13.2193 217.536 9.11182 218.313 7.38916C218.835 6.24073 219.847 5.35596 221.166 4.89307C223.141 4.20752 227.829 4.36573 230.012 4.36573C232.195 4.36573 236.889 4.21338 238.858 4.89307C240.17 5.3501 241.181 6.23487 241.71 7.38916C242.494 9.11768 242.313 13.2193 242.313 15.1294C242.313 17.0396 242.494 21.147 241.71 22.8697Z" fill="black"/>
<path d="M321.916 9.07231C321.935 9.33879 321.935 9.60533 321.935 9.87182C321.935 17.9999 315.749 27.3654 304.442 27.3654C300.958 27.3654 297.722 26.3565 295 24.6053C295.495 24.6624 295.971 24.6814 296.485 24.6814C299.359 24.6814 302.005 23.7106 304.118 22.0546C301.415 21.9974 299.15 20.2271 298.369 17.7906C298.75 17.8476 299.131 17.8857 299.53 17.8857C300.082 17.8857 300.635 17.8096 301.148 17.6764C298.331 17.1053 296.218 14.6307 296.218 11.6421V11.566C297.037 12.0228 297.989 12.3084 298.997 12.3464C297.341 11.2423 296.256 9.35784 296.256 7.22584C296.256 6.08373 296.561 5.03678 297.094 4.12307C300.121 7.85403 304.67 10.2905 309.771 10.5571C309.676 10.1002 309.619 9.62438 309.619 9.14848C309.619 5.76012 312.36 3 315.768 3C317.538 3 319.137 3.74239 320.26 4.94162C321.65 4.67514 322.982 4.16116 324.162 3.45686C323.705 4.88455 322.735 6.08379 321.459 6.84516C322.697 6.71198 323.896 6.36926 325 5.89342C324.163 7.11164 323.115 8.19662 321.916 9.07231Z" fill="black"/>
</svg>
